HIERARCHY
ROOT Hips
{
	OFFSET 0.00000 0.00000 0.00000
	CHANNELS 6 Xposition Yposition Zposition Zrotation Yrotation Xrotation 
	JOINT LHipJoint
	{
		OFFSET 0 0 0
		CHANNELS 3 Zrotation Yrotation Xrotation
		JOINT LeftHip
		{
			OFFSET 1.37590 -1.78394 0.89329
			CHANNELS 3 Zrotation Yrotation Xrotation
			JOINT LeftKnee
			{
				OFFSET 2.47928 -6.81178 0.00000
				CHANNELS 3 Zrotation Yrotation Xrotation
				JOINT LeftAnkle
				{
					OFFSET 2.63345 -7.23535 0.00000
					CHANNELS 3 Zrotation Yrotation Xrotation
					JOINT LeftToe
					{
						OFFSET 0.23938 -0.65768 2.27012
						CHANNELS 3 Zrotation Yrotation Xrotation
						End Site
						{
							OFFSET 0.00000 -0.00000 1.18363
						}
					}
				}
			}
		}
	}
	JOINT RHipJoint
	{
		OFFSET 0 0 0
		CHANNELS 3 Zrotation Yrotation Xrotation
		JOINT RightHip
		{
			OFFSET -1.33617 -1.78394 0.89329
			CHANNELS 3 Zrotation Yrotation Xrotation
			JOINT RightKnee
			{
				OFFSET -2.56922 -7.05888 0.00000
				CHANNELS 3 Zrotation Yrotation Xrotation
				JOINT RightAnkle
				{
					OFFSET -2.56568 -7.04915 0.00000
					CHANNELS 3 Zrotation Yrotation Xrotation
					JOINT RightToe
					{
						OFFSET -0.27533 -0.75646 2.18105
						CHANNELS 3 Zrotation Yrotation Xrotation
						End Site
						{
							OFFSET -0.00000 -0.00000 1.15233
						}
					}
				}
			}
		}
	}
	JOINT lowerback
	{
		OFFSET 0 0 0
		CHANNELS 3 Zrotation Yrotation Xrotation
		JOINT Chest
		{
			OFFSET 0.06190 2.15152 -0.00935
			CHANNELS 3 Zrotation Yrotation Xrotation
			JOINT Chest2
			{
				OFFSET 0.06334 2.15332 0.00872
				CHANNELS 3 Zrotation Yrotation Xrotation
				JOINT lowerneck
				{
					OFFSET 0 0 0
					CHANNELS 3 Zrotation Yrotation Xrotation
					JOINT Neck
					{
						OFFSET -0.04202 1.66908 0.23524
						CHANNELS 3 Zrotation Yrotation Xrotation
						JOINT Head
						{
							OFFSET 0.07510 1.69357 -0.24440
							CHANNELS 3 Zrotation Yrotation Xrotation
							End Site
							{
								OFFSET 0.02556 1.71719 -0.11000
							}
						}
					}
				}
				JOINT LeftCollar
				{
					OFFSET 0 0 0
					CHANNELS 3 Zrotation Yrotation Xrotation
					JOINT LeftShoulder
					{
						OFFSET 3.67168 1.26306 -0.41342
CHANNELS 3 Zrotation Xrotation Yrotation
						JOINT LeftElbow
						{
OFFSET 0 -4.685100 -0.000000
CHANNELS 3 Zrotation Xrotation Yrotation
							JOINT LeftWrist
							{
OFFSET 0 -3.396260 -0.000000
CHANNELS 3 Zrotation Xrotation Yrotation
								JOINT lhand
								{
									OFFSET 0 0 0
CHANNELS 3 Zrotation Xrotation Yrotation
									JOINT LFingers
									{
OFFSET 0 -0.486080 -0.000000
CHANNELS 3 Zrotation Xrotation Yrotation
										End Site
										{
OFFSET 0 -0.391890 -0.000000
										}
									}
								}
								JOINT LThumb
								{
OFFSET 0 0.000000 0.000000
CHANNELS 3 Zrotation Xrotation Yrotation
									End Site
									{
OFFSET 0 -0.397870 0.397870
									}
								}
							}
						}
					}
				}
				JOINT RightCollar
				{
					OFFSET 0 0 0
					CHANNELS 3 Zrotation Yrotation Xrotation
					JOINT RightShoulder
					{
						OFFSET -3.04136 1.42992 -0.76390
CHANNELS 3 Zrotation Xrotation Yrotation
						JOINT RightElbow
						{
OFFSET 0 -5.555760 -0.000000
CHANNELS 3 Zrotation Xrotation Yrotation
							JOINT RightWrist
							{
OFFSET 0 -3.327740 -0.000000
CHANNELS 3 Zrotation Xrotation Yrotation
								JOINT rhand
								{
									OFFSET 0 0 0
CHANNELS 3 Zrotation Xrotation Yrotation
									JOINT RFingers
									{
OFFSET 0 -0.507630 -0.000000
CHANNELS 3 Zrotation Xrotation Yrotation
										End Site
										{
OFFSET 0 -0.409260 -0.000000
										}
									}
								}
								JOINT RThumb
								{
OFFSET 0 0.000000 0.000000
CHANNELS 3 Zrotation Xrotation Yrotation
									End Site
									{
OFFSET 0 -0.415510 0.415510
									}
								}
							}
						}
					}
				}
			}
		}
	}
}
MOTION
Frames: 11
Frame Time: 0.008333333333333333
39.548900 17.846600 4.267100 -126.575000 -84.164500 139.354000 0.000000 0.000000 0.000000 -13.090300 -7.674200 -7.185000 0.299900 3.521100 9.733000 0.139000 5.571800 -11.198700 0.029200 -1.103000 -3.032300 0.000000 0.000000 0.000000 26.984000 9.859600 -8.628300 -0.560500 -4.795400 13.326000 -0.102800 -9.205900 -14.799800 -1.683400 -8.172900 23.240600 2.669400 -1.187500 -4.380400 0.961500 -1.740900 -3.145800 -0.569700 -0.935200 -0.825600 -11.886100 -9.435400 -15.065800 9.650200 -12.088900 14.907100 3.624500 -5.583600 8.435900 -0.000000 -0.000000 0.000000 2.511400 0.751200 -8.085500 15.267500 -24.517400 3.336100 13.406400 28.012700 -20.744000 0.000000 0.000000 0.000000 -7.125000 0.000000 0.000000 -15.144300 50.632200 2.144400 -0.000000 -0.000000 0.000000 -3.977400 1.608300 7.673600 -15.416200 -24.722800 -3.398100 -13.459300 18.355100 24.220200 0.000000 0.000000 0.000000 7.125000 0.000000 -0.000000 16.697200 54.019200 -3.782700
39.550254 17.846527 4.266773 -126.632548 -84.131118 139.412648 0.000000 0.000000 0.000000 -13.058046 -7.622993 -7.202988 0.299634 3.519682 9.729136 0.146612 5.534061 -11.305494 0.011352 -0.684971 -1.882370 0.000000 0.000000 0.000000 27.014597 9.881020 -8.629151 -0.560929 -4.797293 13.331353 -0.101346 -9.217717 -14.793228 -1.654781 -8.106564 23.038191 2.530932 -1.241451 -4.538315 1.031582 -1.813881 -3.004355 -0.429788 -0.964181 -0.587342 -11.803570 -9.450201 -15.353592 9.478602 -12.055973 14.925031 3.548536 -5.567443 8.471450 0.000000 0.000000 0.000000 2.326966 0.522474 -7.675172 15.152843 -24.358609 3.288719 13.479242 28.228171 -20.635454 0.000000 0.000000 0.000000 -7.125000 0.000000 0.000000 -15.030023 50.537505 2.092056 0.000000 0.000000 0.000000 -4.123490 1.391201 7.814279 -15.339856 -24.617415 -3.366300 -13.535393 18.355883 24.344013 0.000000 0.000000 0.000000 7.125000 0.000000 0.000000 16.685786 54.152877 -3.835247
39.550385 17.846203 4.267195 -126.816775 -84.094886 139.586725 0.000000 0.000000 0.000000 -13.041857 -7.569399 -7.190264 0.298646 3.513775 9.712527 0.160320 5.500447 -11.528404 0.005906 -0.487274 -1.339075 0.000000 0.000000 0.000000 27.031162 9.878903 -8.618576 -0.560644 -4.795977 13.327486 -0.103262 -9.180764 -14.776270 -1.644058 -8.081501 22.961882 2.529808 -1.233939 -4.539669 0.991579 -1.803353 -2.981924 -0.470223 -0.958430 -0.564523 -11.831420 -9.473942 -15.371249 9.502998 -12.090968 14.979920 3.554793 -5.582561 8.500393 0.000000 0.000000 0.000000 2.314012 0.579945 -7.566169 15.098766 -24.283505 3.266507 13.414389 28.248763 -20.691635 0.000000 0.000000 0.000000 -7.125000 0.000000 0.000000 -15.115090 50.582195 2.121280 0.000000 0.000000 0.000000 -4.102381 1.385262 7.735158 -15.268684 -24.519112 -3.336689 -13.746978 18.534149 24.519646 0.000000 0.000000 0.000000 7.125000 0.000000 0.000000 16.567607 54.362336 -3.891997
39.551292 17.846100 4.267327 -127.016848 -84.041876 139.773492 0.000000 0.000000 0.000000 -13.007792 -7.510966 -7.180455 0.297923 3.509462 9.700510 0.163892 5.488796 -11.582576 0.003088 -0.359389 -0.987544 0.000000 0.000000 0.000000 27.062988 9.886170 -8.609033 -0.561412 -4.799167 13.336535 -0.104800 -9.143217 -14.752331 -1.633573 -8.057119 22.887704 2.504200 -1.207700 -4.540953 0.971159 -1.767115 -2.959810 -0.475917 -0.939353 -0.539971 -11.872577 -9.504107 -15.301802 9.532699 -12.136298 14.963514 3.566716 -5.606026 8.492625 0.000000 0.000000 0.000000 2.266003 0.571529 -7.374339 14.981550 -24.120349 3.218410 13.355102 28.429186 -20.711983 0.000000 0.000000 0.000000 -7.125000 0.000000 0.000000 -15.179987 50.592698 2.134666 0.000000 0.000000 0.000000 -4.110606 1.391198 7.552184 -15.182975 -24.400316 -3.301166 -13.849654 18.734571 24.644568 0.000000 0.000000 0.000000 7.125000 0.000000 0.000000 16.529476 54.502062 -3.940090
39.552667 17.845808 4.267300 -126.982679 -84.043544 139.733679 0.000000 0.000000 0.000000 -13.004362 -7.489080 -7.195004 0.299160 3.517152 9.722006 0.170532 5.440755 -11.655980 0.001535 -0.255966 -0.703206 0.000000 0.000000 0.000000 27.062483 9.864151 -8.614757 -0.560528 -4.795418 13.326128 -0.102558 -9.143007 -14.717669 -1.624045 -8.034776 22.819655 2.490025 -1.213184 -4.468053 0.934731 -1.770957 -2.992908 -0.502971 -0.942490 -0.615417 -11.955527 -9.508885 -15.219425 9.613617 -12.150927 14.960052 3.607539 -5.613420 8.489762 0.000000 0.000000 0.000000 2.235081 0.634932 -7.132145 14.858684 -23.948831 3.168369 13.362699 28.598125 -20.826372 0.000000 0.000000 0.000000 -7.125000 0.000000 0.000000 -15.220149 50.705834 2.183573 0.000000 0.000000 0.000000 -4.113710 1.500165 7.430362 -15.119647 -24.312512 -3.275088 -13.788041 18.813612 24.531623 0.000000 0.000000 0.000000 7.125000 0.000000 0.000000 16.531635 54.381368 -3.891415
39.553709 17.845434 4.266944 -127.170938 -83.965717 139.915626 0.000000 0.000000 0.000000 -12.937543 -7.367570 -7.223582 0.299759 3.520156 9.730498 0.179328 5.356846 -11.732782 0.000313 -0.097198 -0.266950 0.000000 0.000000 0.000000 27.121086 9.867816 -8.616661 -0.559928 -4.793112 13.319362 -0.099744 -9.121974 -14.648411 -1.601989 -7.982578 22.661231 2.515015 -1.199832 -4.429837 0.919066 -1.752386 -2.991357 -0.531409 -0.933716 -0.635867 -11.966252 -9.516402 -15.305767 9.587179 -12.146497 15.006781 3.597616 -5.610891 8.518935 0.000000 0.000000 0.000000 2.193964 0.676147 -6.940093 14.747488 -23.793063 3.123397 13.314810 28.691760 -20.673108 0.000000 0.000000 0.000000 -7.125000 0.000000 0.000000 -15.202570 50.548292 2.121074 0.000000 0.000000 0.000000 -4.105032 1.507025 7.295454 -15.032896 -24.191868 -3.239420 -13.835612 18.968813 24.533694 0.000000 0.000000 0.000000 7.125000 0.000000 0.000000 16.485513 54.392368 -3.884417
39.554747 17.844321 4.267008 -127.160000 -83.922965 139.914798 0.000000 0.000000 0.000000 -12.877139 -7.255212 -7.293635 0.301446 3.530185 9.758462 0.191376 5.235714 -11.833265 0.000046 0.046966 0.129040 0.000000 0.000000 0.000000 27.154163 9.857554 -8.666034 -0.561008 -4.797430 13.331690 -0.095134 -9.111886 -14.564799 -1.581745 -7.934359 22.514731 2.527468 -1.179566 -4.456340 0.899878 -1.726417 -2.955169 -0.558396 -0.919787 -0.584104 -12.013948 -9.526917 -15.376178 9.641191 -12.148816 14.981083 3.620316 -5.607208 8.529889 0.000000 0.000000 0.000000 2.153167 0.632865 -6.738165 14.597026 -23.581723 3.062921 13.418323 28.983016 -20.742702 0.000000 0.000000 0.000000 -7.125000 0.000000 0.000000 -15.132478 50.632740 2.142941 0.000000 0.000000 0.000000 -4.088512 1.493867 7.105323 -14.976045 -24.112700 -3.216139 -13.653235 18.990738 24.331562 0.000000 0.000000 0.000000 7.125000 0.000000 0.000000 16.562231 54.162805 -3.809572
39.556489 17.842876 4.266688 -126.967214 -83.869312 139.739214 0.000000 0.000000 0.000000 -12.781764 -7.153721 -7.359682 0.302771 3.537885 9.780044 0.198902 5.139087 -11.875268 0.000524 0.140703 0.386620 0.000000 0.000000 0.000000 27.211724 9.824480 -8.732512 -0.562242 -4.802720 13.346783 -0.091158 -9.075508 -14.458057 -1.569024 -7.903917 22.422646 2.518153 -1.149526 -4.462396 0.880690 -1.686169 -2.957258 -0.571495 -0.899664 -0.582012 -11.915373 -9.527288 -15.270113 9.612771 -12.171537 14.894179 3.596268 -5.619303 8.476217 0.000000 0.000000 0.000000 2.154684 0.676469 -6.599745 14.463965 -23.393992 3.009898 13.436890 29.143744 -20.604296 0.000000 0.000000 0.000000 -7.125000 0.000000 0.000000 -15.057645 50.500349 2.082034 0.000000 0.000000 0.000000 -4.166069 1.703394 7.237889 -15.006827 -24.155596 -3.228758 -13.717479 18.792610 24.595915 0.000000 0.000000 0.000000 7.125000 0.000000 0.000000 16.635744 54.430037 -3.937147
39.556805 17.841465 4.268120 -126.973442 -83.778942 139.744492 0.000000 0.000000 0.000000 -12.689186 -7.022635 -7.381909 0.302635 3.537010 9.777496 0.211609 5.030633 -11.997905 0.001745 0.266646 0.732666 0.000000 0.000000 0.000000 27.279276 9.765484 -8.794346 -0.566410 -4.820014 13.395871 -0.095255 -8.999976 -14.426362 -1.517644 -7.779335 22.045755 2.599517 -1.135145 -4.456525 0.860537 -1.669570 -2.946795 -0.636984 -0.892320 -0.577255 -11.917614 -9.519886 -15.288798 9.618594 -12.161047 14.908657 3.599405 -5.613276 8.483674 0.000000 0.000000 0.000000 2.136896 0.714966 -6.378022 14.325174 -23.197648 2.954964 13.337634 29.303496 -20.656699 0.000000 0.000000 0.000000 -7.125000 0.000000 0.000000 -15.173929 50.535921 2.112242 0.000000 0.000000 0.000000 -4.161303 1.728214 7.159917 -14.951227 -24.078130 -3.206068 -13.642407 18.797026 24.365141 0.000000 0.000000 0.000000 7.125000 0.000000 0.000000 16.590312 54.193167 -3.828763
39.559032 17.839210 4.266606 -127.087988 -83.761053 139.909087 0.000000 0.000000 0.000000 -12.629963 -6.825126 -7.524725 0.303017 3.539264 9.783897 0.226859 4.810368 -12.062293 0.003700 0.393506 1.081216 0.000000 0.000000 0.000000 27.278183 9.818856 -8.931667 -0.577943 -4.868063 13.532599 -0.097182 -9.002654 -14.459613 -1.486385 -7.702341 21.813506 2.603957 -1.150127 -4.458411 0.829447 -1.689836 -2.979194 -0.671604 -0.903747 -0.611208 -11.968099 -9.494393 -15.250598 9.662172 -12.130760 14.936364 3.627875 -5.599429 8.489185 0.000000 0.000000 0.000000 2.124030 0.816016 -6.115420 14.198775 -23.018138 2.905379 13.432524 29.549991 -20.613523 0.000000 0.000000 0.000000 -7.125000 0.000000 0.000000 -15.065606 50.508716 2.086385 0.000000 0.000000 0.000000 -4.086442 1.640892 7.014585 -14.836909 -23.918380 -3.159494 -13.655919 19.001813 24.578701 0.000000 0.000000 0.000000 7.125000 0.000000 0.000000 16.687771 54.401833 -3.938126
39.561487 17.836950 4.264794 -127.215319 -83.720207 140.080811 0.000000 0.000000 0.000000 -12.567399 -6.777013 -7.641314 0.308406 3.570334 9.871003 0.236386 4.734457 -12.159581 0.004531 0.431410 1.185443 0.000000 0.000000 0.000000 27.294288 9.847696 -9.108030 -0.595136 -4.938612 13.733529 -0.108230 -8.934254 -14.544710 -1.470026 -7.661808 21.691468 2.584359 -1.138243 -4.443432 0.815083 -1.672749 -3.001796 -0.674006 -0.895762 -0.642102 -11.940006 -9.486781 -15.259912 9.631821 -12.119251 14.938299 3.614741 -5.594838 8.486210 0.000000 0.000000 0.000000 2.096864 0.860614 -5.862752 14.057512 -22.816848 2.850392 13.358602 29.723264 -20.533935 0.000000 0.000000 0.000000 -7.125000 0.000000 0.000000 -15.103510 50.419073 2.058017 0.000000 0.000000 0.000000 -4.083619 1.669122 6.792197 -14.759043 -23.809383 -3.127996 -13.505820 19.114928 24.411076 0.000000 0.000000 0.000000 7.125000 0.000000 0.000000 16.749765 54.212044 -3.874986
